<?xml version="1.0" standalone="no"?>
<!DOCTYPE svg PUBLIC "-//W3C//DTD SVG 20010904//EN"
 "http://www.w3.org/TR/2001/REC-SVG-20010904/DTD/svg10.dtd">
<svg version="1.0" xmlns="http://www.w3.org/2000/svg"
 width="512.000000pt" height="512.000000pt" viewBox="0 0 512.000000 512.000000"
 preserveAspectRatio="xMidYMid meet">
<metadata>
Created by potrace 1.16, written by Peter Selinger 2001-2019
</metadata>
<g transform="translate(0.000000,512.000000) scale(0.100000,-0.100000)"
fill="#000000" stroke="none">
<path d="M205 4201 c-22 -10 -54 -34 -72 -52 -68 -72 -63 46 -63 -1589 0
-1635 -5 -1517 63 -1589 18 -18 50 -42 72 -52 39 -18 121 -19 2355 -19 2234 0
2316 1 2355 19 22 10 54 34 72 52 68 72 63 -46 63 1591 0 1423 -1 1485 -19
1523 -23 49 -74 99 -123 119 -33 14 -283 16 -2350 16 -2232 0 -2314 -1 -2353
-19z m1106 -329 c15 -13 22 -30 22 -52 0 -22 -7 -39 -22 -52 -22 -17 -49 -18
-397 -18 l-374 0 0 -460 0 -460 325 0 325 0 0 195 0 195 -175 0 c-162 0 -177
2 -195 20 -11 11 -20 33 -20 50 0 17 9 39 20 50 19 19 33 20 244 20 205 0 226
-2 247 -19 l24 -19 0 -297 0 -297 -24 -19 c-22 -18 -45 -19 -444 -19 -418 0
-421 0 -444 22 l-23 21 0 556 0 555 22 23 21 23 423 0 c395 0 423 -1 445 -18z
m1129 -2 c20 -20 20 -33 20 -580 0 -547 0 -560 -20 -580 -29 -29 -74 -26 -99
6 -20 25 -21 39 -21 265 l0 239 -325 0 -325 0 0 -239 c0 -226 -1 -240 -21
-265 -25 -32 -70 -35 -99 -6 -20 20 -20 33 -20 580 0 547 0 560 20 580 19 19
33 20 445 20 412 0 426 -1 445 -20z m498 -140 c101 -88 188 -157 193 -154 5 3
89 75 186 160 188 164 210 177 253 134 20 -20 20 -33 20 -580 0 -547 0 -560
-20 -580 -27 -27 -71 -26 -98 3 -22 23 -22 27 -24 484 l-3 462 -149 -130 c-99
-86 -156 -129 -172 -129 -16 0 -72 43 -171 129 l-148 129 -5 -463 c-5 -437 -6
-464 -24 -484 -24 -27 -70 -27 -96 -1 -20 20 -20 33 -20 580 0 547 0 560 20
580 42 42 63 30 258 -140z m1759 138 c29 -27 29 -65 1 -95 l-21 -23 -374 0
-373 0 0 -195 0 -195 372 0 c368 0 372 0 395 -22 29 -27 29 -65 1 -95 l-21
-23 -374 0 -373 0 0 -195 0 -195 372 0 c368 0 372 0 395 -22 29 -27 29 -65 1
-95 l-21 -23 -423 0 c-400 0 -423 1 -445 19 l-24 19 0 562 0 562 24 19 c22 18
45 19 444 19 418 0 421 0 444 -22z m-3386 -1457 l24 -19 0 -562 0 -562 -24
-19 c-22 -18 -45 -19 -444 -19 -418 0 -421 0 -444 22 l-23 21 0 556 0 555 22
23 21 23 423 0 c400 0 423 -1 445 -19z m336 -3 c11 -13 93 -220 183 -462 100
-270 166 -433 171 -425 4 8 80 207 168 443 89 236 169 438 178 448 36 40 113
7 113 -49 0 -43 -398 -1095 -422 -1115 -26 -23 -60 -23 -86 0 -23 19 -422
1076 -422 1117 0 58 77 86 117 43z m1923 2 c11 -11 20 -33 20 -50 0 -17 -9
-39 -20 -50 -19 -19 -33 -20 -395 -20 l-375 0 0 -195 0 -195 375 0 c362 0 376
-1 395 -20 11 -11 20 -33 20 -50 0 -17 -9 -39 -20 -50 -19 -19 -33 -20 -395
-20 l-375 0 0 -195 0 -195 375 0 c362 0 376 -1 395 -20 11 -11 20 -33 20 -50
0 -17 -9 -39 -20 -50 -19 -19 -33 -20 -445 -20 -412 0 -426 1 -445 20 -20 20
-20 33 -20 580 0 547 0 560 20 580 19 19 33 20 445 20 412 0 426 -1 445 -20z
m940 4 c77 -23 169 -116 194 -197 27 -85 19 -214 -16 -282 -30 -59 -101 -128
-153 -150 l-37 -15 62 -67 c97 -103 160 -256 160 -387 0 -48 -31 -86 -70 -86
-43 0 -64 33 -76 122 -16 111 -66 209 -143 281 -104 95 -199 127 -383 127
l-117 0 -3 -246 c-3 -245 -3 -246 -27 -265 -30 -24 -62 -24 -92 0 l-24 19 0
562 0 562 24 19 c22 18 43 19 335 19 257 0 322 -3 366 -16z"/>
<path d="M1670 3555 l0 -195 325 0 325 0 0 195 0 195 -325 0 -325 0 0 -195z"/>
<path d="M540 1830 l0 -460 325 0 325 0 0 460 0 460 -325 0 -325 0 0 -460z"/>
<path d="M3930 2095 l0 -195 248 0 c136 0 263 4 281 10 95 27 144 142 111 260
-11 41 -61 94 -103 109 -17 7 -128 11 -283 11 l-254 0 0 -195z"/>
</g>
</svg>
